<?xml version="1.0" encoding="utf-8"?>
<!-- Generator: Adobe Illustrator 23.0.3, SVG Export Plug-In . SVG Version: 6.00 Build 0)  -->
<svg version="1.1" id="Layer_1" xmlns="http://www.w3.org/2000/svg" xmlns:xlink="http://www.w3.org/1999/xlink" x="0px" y="0px"
	 viewBox="0 0 467.2 46" style="enable-background:new 0 0 467.2 46;" xml:space="preserve">
<style type="text/css">
	.st0{fill:url(#SVGID_1_);}
	.st1{fill:url(#SVGID_2_);}
	.st2{fill:url(#SVGID_3_);}
	.st3{fill:url(#SVGID_4_);}
	.st4{fill:url(#SVGID_5_);}
	.st5{fill:url(#SVGID_6_);}
	.st6{fill:url(#SVGID_7_);}
	.st7{fill:url(#SVGID_8_);}
	.st8{fill:url(#SVGID_9_);}
	.st9{fill:url(#SVGID_10_);}
	.st10{fill:url(#SVGID_11_);}
	.st11{fill:url(#SVGID_12_);}
	.st12{fill:url(#SVGID_13_);}
	.st13{fill:url(#SVGID_14_);}
	.st14{fill:url(#SVGID_15_);}
	.st15{fill:url(#SVGID_16_);}
	.st16{fill:url(#SVGID_17_);}
	.st17{fill:url(#SVGID_18_);}
	.st18{fill:#FF0000;}
</style>
<g>
	<linearGradient id="SVGID_1_" gradientUnits="userSpaceOnUse" x1="22.0378" y1="11.973" x2="22.0378" y2="78.1873">
		<stop  offset="0.1534" style="stop-color:#FFFFFF"/>
		<stop  offset="1" style="stop-color:#000000"/>
	</linearGradient>
	<path class="st0" d="M38.3,12.6c1.7,1.7,2.6,4.1,2.6,7.2v13.4h-5.8V20.6c0-1.8-0.5-3.2-1.4-4.1c-0.9-0.9-2.1-1.4-3.7-1.4
		s-2.8,0.5-3.7,1.4c-0.9,0.9-1.4,2.3-1.4,4.1v12.6h-5.8V20.6c0-1.8-0.5-3.2-1.4-4.1c-0.9-0.9-2.1-1.4-3.7-1.4
		c-1.6,0-2.9,0.5-3.8,1.4c-0.9,0.9-1.4,2.3-1.4,4.1v12.6H3.2V10.3h5.8v2.8c0.7-1,1.7-1.7,2.9-2.3c1.2-0.5,2.5-0.8,3.9-0.8
		c1.8,0,3.4,0.4,4.8,1.1c1.4,0.8,2.5,1.8,3.3,3.2c0.7-1.3,1.8-2.4,3.2-3.2c1.4-0.8,2.9-1.2,4.6-1.2C34.3,10,36.6,10.9,38.3,12.6z"/>
	<linearGradient id="SVGID_2_" gradientUnits="userSpaceOnUse" x1="56.8073" y1="11.973" x2="56.8073" y2="78.1873">
		<stop  offset="0.1534" style="stop-color:#FFFFFF"/>
		<stop  offset="1" style="stop-color:#000000"/>
	</linearGradient>
	<path class="st1" d="M46.3,15.5c0.9-1.8,2.2-3.2,3.8-4.1c1.6-1,3.3-1.4,5.3-1.4c1.7,0,3.2,0.3,4.5,1c1.3,0.7,2.3,1.6,3.1,2.6v-3.3
		h5.8v22.9h-5.8v-3.3c-0.7,1.1-1.8,2-3.1,2.7c-1.3,0.7-2.8,1.1-4.5,1.1c-1.9,0-3.7-0.5-5.3-1.5c-1.6-1-2.8-2.4-3.8-4.2
		c-0.9-1.8-1.4-3.9-1.4-6.2C44.9,19.4,45.4,17.3,46.3,15.5z M62.1,18.2c-0.6-1-1.3-1.8-2.2-2.3c-0.9-0.5-1.9-0.8-3-0.8
		c-1.1,0-2.1,0.3-3,0.8c-0.9,0.5-1.6,1.3-2.2,2.3c-0.6,1-0.8,2.2-0.8,3.6s0.3,2.6,0.8,3.6c0.6,1,1.3,1.8,2.2,2.4
		c0.9,0.6,1.9,0.8,2.9,0.8c1.1,0,2.1-0.3,3-0.8c0.9-0.5,1.7-1.3,2.2-2.3c0.5-1,0.8-2.2,0.8-3.6S62.6,19.2,62.1,18.2z"/>
	<linearGradient id="SVGID_3_" gradientUnits="userSpaceOnUse" x1="85.0397" y1="11.973" x2="85.0397" y2="78.1873">
		<stop  offset="0.1534" style="stop-color:#FFFFFF"/>
		<stop  offset="1" style="stop-color:#000000"/>
	</linearGradient>
	<path class="st2" d="M95.9,10.3v22.9h-5.8v-2.9c-0.7,1-1.7,1.8-2.9,2.3c-1.2,0.6-2.5,0.8-3.9,0.8c-1.8,0-3.4-0.4-4.7-1.1
		c-1.4-0.8-2.5-1.9-3.2-3.3c-0.8-1.5-1.2-3.2-1.2-5.3V10.3h5.8v12.6c0,1.8,0.5,3.2,1.4,4.2c0.9,1,2.1,1.5,3.7,1.5
		c1.6,0,2.8-0.5,3.8-1.5c0.9-1,1.4-2.4,1.4-4.2V10.3H95.9z"/>
	<linearGradient id="SVGID_4_" gradientUnits="userSpaceOnUse" x1="104.5075" y1="11.973" x2="104.5075" y2="78.1873">
		<stop  offset="0.1534" style="stop-color:#FFFFFF"/>
		<stop  offset="1" style="stop-color:#000000"/>
	</linearGradient>
	<path class="st3" d="M107.4,2.7v30.5h-5.8V2.7H107.4z"/>
	<linearGradient id="SVGID_5_" gradientUnits="userSpaceOnUse" x1="123.5014" y1="11.973" x2="123.5014" y2="78.1873">
		<stop  offset="0.1534" style="stop-color:#FFFFFF"/>
		<stop  offset="1" style="stop-color:#000000"/>
	</linearGradient>
	<path class="st4" d="M113,15.5c0.9-1.8,2.2-3.2,3.8-4.1c1.6-1,3.3-1.4,5.3-1.4c1.7,0,3.2,0.3,4.5,1c1.3,0.7,2.3,1.6,3.1,2.6v-3.3
		h5.8v22.9h-5.8v-3.3c-0.7,1.1-1.8,2-3.1,2.7c-1.3,0.7-2.8,1.1-4.5,1.1c-1.9,0-3.7-0.5-5.3-1.5c-1.6-1-2.8-2.4-3.8-4.2
		c-0.9-1.8-1.4-3.9-1.4-6.2C111.6,19.4,112.1,17.3,113,15.5z M128.8,18.2c-0.6-1-1.3-1.8-2.2-2.3s-1.9-0.8-3-0.8s-2.1,0.3-3,0.8
		c-0.9,0.5-1.6,1.3-2.2,2.3c-0.6,1-0.8,2.2-0.8,3.6s0.3,2.6,0.8,3.6s1.3,1.8,2.2,2.4c0.9,0.6,1.9,0.8,2.9,0.8c1.1,0,2.1-0.3,3-0.8
		s1.7-1.3,2.2-2.3c0.5-1,0.8-2.2,0.8-3.6S129.3,19.2,128.8,18.2z"/>
	<linearGradient id="SVGID_6_" gradientUnits="userSpaceOnUse" x1="151.9394" y1="11.973" x2="151.9394" y2="78.1873">
		<stop  offset="0.1534" style="stop-color:#FFFFFF"/>
		<stop  offset="1" style="stop-color:#000000"/>
	</linearGradient>
	<path class="st5" d="M160.3,12.6c1.7,1.7,2.5,4.1,2.5,7.2v13.4h-5.8V20.6c0-1.8-0.5-3.2-1.4-4.2c-0.9-1-2.1-1.5-3.7-1.5
		c-1.6,0-2.9,0.5-3.8,1.5c-0.9,1-1.4,2.4-1.4,4.2v12.6h-5.8V10.3h5.8v2.8c0.8-1,1.8-1.8,2.9-2.3c1.2-0.6,2.5-0.8,3.9-0.8
		C156.4,10,158.6,10.9,160.3,12.6z"/>
	<linearGradient id="SVGID_7_" gradientUnits="userSpaceOnUse" x1="178.7289" y1="11.973" x2="178.7289" y2="78.1873">
		<stop  offset="0.1534" style="stop-color:#FFFFFF"/>
		<stop  offset="1" style="stop-color:#000000"/>
	</linearGradient>
	<path class="st6" d="M168.2,15.5c0.9-1.8,2.2-3.2,3.8-4.1c1.6-1,3.3-1.4,5.3-1.4c1.7,0,3.2,0.3,4.5,1c1.3,0.7,2.3,1.6,3.1,2.6v-3.3
		h5.8v22.9h-5.8v-3.3c-0.7,1.1-1.8,2-3.1,2.7c-1.3,0.7-2.8,1.1-4.5,1.1c-1.9,0-3.7-0.5-5.3-1.5c-1.6-1-2.8-2.4-3.8-4.2
		c-0.9-1.8-1.4-3.9-1.4-6.2C166.8,19.4,167.3,17.3,168.2,15.5z M184,18.2c-0.6-1-1.3-1.8-2.2-2.3s-1.9-0.8-3-0.8s-2.1,0.3-3,0.8
		c-0.9,0.5-1.6,1.3-2.2,2.3c-0.6,1-0.8,2.2-0.8,3.6s0.3,2.6,0.8,3.6s1.3,1.8,2.2,2.4c0.9,0.6,1.9,0.8,2.9,0.8c1.1,0,2.1-0.3,3-0.8
		s1.7-1.3,2.2-2.3c0.5-1,0.8-2.2,0.8-3.6S184.5,19.2,184,18.2z"/>
	<linearGradient id="SVGID_8_" gradientUnits="userSpaceOnUse" x1="205.1254" y1="11.973" x2="205.1254" y2="78.1873">
		<stop  offset="0.1534" style="stop-color:#FFFFFF"/>
		<stop  offset="1" style="stop-color:#000000"/>
	</linearGradient>
	<path class="st7" d="M208.5,38.5c0,1.8-0.5,3.2-1.4,4c-0.9,0.9-2.3,1.3-4.1,1.3h-2v-2.5h1.6c1.1,0,1.8-0.2,2.3-0.7
		c0.5-0.5,0.7-1.2,0.7-2.3V10.7h2.9V38.5z M205.6,5.8c-0.4-0.4-0.6-0.9-0.6-1.5c0-0.6,0.2-1.1,0.6-1.5c0.4-0.4,0.9-0.6,1.5-0.6
		c0.6,0,1.1,0.2,1.5,0.6c0.4,0.4,0.6,0.9,0.6,1.5c0,0.6-0.2,1.1-0.6,1.5c-0.4,0.4-0.9,0.6-1.5,0.6C206.5,6.4,206.1,6.2,205.6,5.8z"
		/>
	<linearGradient id="SVGID_9_" gradientUnits="userSpaceOnUse" x1="225.0878" y1="11.973" x2="225.0878" y2="78.1873">
		<stop  offset="0.1534" style="stop-color:#FFFFFF"/>
		<stop  offset="1" style="stop-color:#000000"/>
	</linearGradient>
	<path class="st8" d="M215.2,15.8c0.9-1.7,2.2-3.1,3.8-4s3.5-1.4,5.5-1.4c2.1,0,4,0.5,5.5,1.5s2.7,2.3,3.4,3.8v-4.9h2.9v22.5h-2.9
		v-5c-0.7,1.5-1.8,2.8-3.4,3.8c-1.6,1-3.4,1.5-5.5,1.5c-2,0-3.9-0.5-5.5-1.4c-1.6-1-2.9-2.3-3.8-4.1s-1.4-3.8-1.4-6.1
		C213.8,19.6,214.3,17.5,215.2,15.8z M232.4,17.1c-0.7-1.4-1.8-2.4-3-3.2c-1.3-0.7-2.7-1.1-4.2-1.1c-1.6,0-3,0.4-4.3,1.1
		c-1.3,0.7-2.3,1.8-3,3.1c-0.7,1.4-1.1,3-1.1,4.8c0,1.8,0.4,3.5,1.1,4.8c0.7,1.4,1.7,2.4,3,3.2s2.7,1.1,4.3,1.1
		c1.5,0,2.9-0.4,4.2-1.1c1.3-0.7,2.3-1.8,3-3.2c0.7-1.4,1.1-3,1.1-4.8C233.5,20.1,233.1,18.5,232.4,17.1z"/>
	<linearGradient id="SVGID_10_" gradientUnits="userSpaceOnUse" x1="254.227" y1="11.973" x2="254.227" y2="78.1873">
		<stop  offset="0.1534" style="stop-color:#FFFFFF"/>
		<stop  offset="1" style="stop-color:#000000"/>
	</linearGradient>
	<path class="st9" d="M249.2,11.8c1.6-1,3.4-1.5,5.5-1.5c2,0,3.9,0.5,5.5,1.4c1.6,0.9,2.9,2.3,3.8,4c0.9,1.7,1.4,3.8,1.4,6.1
		c0,2.3-0.5,4.3-1.4,6.1c-0.9,1.8-2.2,3.1-3.8,4.1c-1.6,1-3.5,1.4-5.5,1.4c-2.1,0-4-0.5-5.5-1.5c-1.6-1-2.7-2.3-3.4-3.8v15.6H243
		V10.7h2.8v4.9C246.5,14.1,247.7,12.8,249.2,11.8z M261.5,17c-0.7-1.4-1.7-2.4-3-3.1c-1.3-0.7-2.7-1.1-4.3-1.1
		c-1.5,0-2.9,0.4-4.2,1.1c-1.3,0.7-2.3,1.8-3,3.2c-0.7,1.4-1.1,3-1.1,4.8c0,1.8,0.4,3.4,1.1,4.8c0.7,1.4,1.8,2.4,3,3.2
		c1.3,0.7,2.7,1.1,4.2,1.1c1.6,0,3-0.4,4.3-1.1s2.3-1.8,3-3.2c0.7-1.4,1.1-3,1.1-4.8C262.6,20,262.2,18.4,261.5,17z"/>
	<linearGradient id="SVGID_11_" gradientUnits="userSpaceOnUse" x1="280.7685" y1="11.973" x2="280.7685" y2="78.1873">
		<stop  offset="0.1534" style="stop-color:#FFFFFF"/>
		<stop  offset="1" style="stop-color:#000000"/>
	</linearGradient>
	<path class="st10" d="M270.9,15.8c0.9-1.7,2.2-3.1,3.8-4s3.5-1.4,5.5-1.4c2.1,0,4,0.5,5.5,1.5s2.7,2.3,3.4,3.8v-4.9h2.9v22.5h-2.9
		v-5c-0.7,1.5-1.8,2.8-3.4,3.8c-1.6,1-3.4,1.5-5.5,1.5c-2,0-3.9-0.5-5.5-1.4c-1.6-1-2.9-2.3-3.8-4.1s-1.4-3.8-1.4-6.1
		C269.5,19.6,269.9,17.5,270.9,15.8z M288,17.1c-0.7-1.4-1.8-2.4-3-3.2c-1.3-0.7-2.7-1.1-4.2-1.1c-1.6,0-3,0.4-4.3,1.1
		c-1.3,0.7-2.3,1.8-3,3.1c-0.7,1.4-1.1,3-1.1,4.8c0,1.8,0.4,3.5,1.1,4.8c0.7,1.4,1.7,2.4,3,3.2s2.7,1.1,4.3,1.1
		c1.5,0,2.9-0.4,4.2-1.1c1.3-0.7,2.3-1.8,3-3.2c0.7-1.4,1.1-3,1.1-4.8C289.2,20.1,288.8,18.5,288,17.1z"/>
	<linearGradient id="SVGID_12_" gradientUnits="userSpaceOnUse" x1="303.9477" y1="11.973" x2="303.9477" y2="78.1873">
		<stop  offset="0.1534" style="stop-color:#FFFFFF"/>
		<stop  offset="1" style="stop-color:#000000"/>
	</linearGradient>
	<path class="st11" d="M304.4,11.4c1.3-0.8,2.9-1.2,4.8-1.2v3h-0.8c-2.1,0-3.8,0.6-5,1.7s-1.9,3-1.9,5.7v12.6h-2.9V10.7h2.9v4
		C302.2,13.3,303.1,12.2,304.4,11.4z"/>
	<linearGradient id="SVGID_13_" gradientUnits="userSpaceOnUse" x1="332.0156" y1="11.973" x2="332.0156" y2="78.1873">
		<stop  offset="0.1534" style="stop-color:#FFFFFF"/>
		<stop  offset="1" style="stop-color:#000000"/>
	</linearGradient>
	<path class="st12" d="M326.3,31.7c-1.6-1.2-2.6-2.8-2.7-4.9h3c0.1,1.3,0.7,2.3,1.8,3.1c1.1,0.8,2.5,1.2,4.3,1.2
		c1.6,0,2.8-0.4,3.7-1.1c0.9-0.7,1.3-1.7,1.3-2.8c0-0.8-0.2-1.4-0.7-1.9c-0.5-0.5-1.1-0.9-1.9-1.2c-0.8-0.3-1.8-0.6-3.1-0.9
		c-1.7-0.4-3-0.9-4.1-1.3c-1-0.4-1.9-1.1-2.7-2c-0.7-0.9-1.1-2-1.1-3.5c0-1.1,0.3-2.1,1-3.1c0.7-0.9,1.6-1.7,2.8-2.2
		c1.2-0.5,2.6-0.8,4.1-0.8c2.4,0,4.4,0.6,5.9,1.8c1.5,1.2,2.3,2.9,2.4,5.1h-2.9c-0.1-1.3-0.6-2.4-1.5-3.2c-0.9-0.8-2.2-1.2-3.9-1.2
		c-1.5,0-2.6,0.3-3.5,1c-0.9,0.7-1.4,1.5-1.4,2.6c0,0.9,0.3,1.6,0.8,2.2c0.5,0.6,1.2,1,2,1.3c0.8,0.3,1.9,0.7,3.2,1.1
		c1.6,0.4,2.9,0.9,3.9,1.3c1,0.4,1.8,1,2.5,1.8c0.7,0.8,1,1.9,1.1,3.2c0,1.2-0.3,2.3-1,3.2s-1.6,1.7-2.8,2.2
		c-1.2,0.5-2.5,0.8-4.1,0.8C330,33.5,327.9,32.9,326.3,31.7z"/>
	<linearGradient id="SVGID_14_" gradientUnits="userSpaceOnUse" x1="355.7729" y1="11.973" x2="355.7729" y2="78.1873">
		<stop  offset="0.1534" style="stop-color:#FFFFFF"/>
		<stop  offset="1" style="stop-color:#000000"/>
	</linearGradient>
	<path class="st13" d="M361.2,11.3c1.4,0.7,2.4,1.8,3.2,3.3c0.8,1.5,1.2,3.3,1.2,5.4v13.2h-2.8V20.3c0-2.4-0.6-4.3-1.8-5.6
		c-1.2-1.3-2.9-1.9-5-1.9c-2.2,0-3.9,0.7-5.2,2.1c-1.3,1.4-1.9,3.4-1.9,6.1v12.3h-2.9V2.7h2.9v11.8c0.7-1.3,1.8-2.4,3.2-3.1
		c1.4-0.7,2.9-1.1,4.7-1.1C358.3,10.3,359.9,10.6,361.2,11.3z"/>
	<linearGradient id="SVGID_15_" gradientUnits="userSpaceOnUse" x1="381.9638" y1="11.973" x2="381.9638" y2="78.1873">
		<stop  offset="0.1534" style="stop-color:#FFFFFF"/>
		<stop  offset="1" style="stop-color:#000000"/>
	</linearGradient>
	<path class="st14" d="M376.2,32.1c-1.7-0.9-3-2.3-4-4c-1-1.7-1.5-3.8-1.5-6.1c0-2.3,0.5-4.4,1.5-6.1c1-1.7,2.3-3.1,4-4
		c1.7-0.9,3.6-1.4,5.7-1.4c2.1,0,4,0.5,5.8,1.4s3.1,2.3,4,4c1,1.7,1.5,3.8,1.5,6.1c0,2.3-0.5,4.3-1.5,6.1c-1,1.8-2.4,3.1-4.1,4.1
		c-1.7,0.9-3.7,1.4-5.8,1.4S377.9,33,376.2,32.1z M386,30c1.3-0.7,2.3-1.7,3.1-3.1c0.8-1.4,1.2-3,1.2-5c0-2-0.4-3.6-1.2-5
		c-0.8-1.4-1.8-2.4-3.1-3.1c-1.3-0.7-2.6-1-4.1-1c-1.5,0-2.9,0.3-4.1,1c-1.3,0.7-2.3,1.7-3,3.1c-0.8,1.4-1.1,3-1.1,5
		c0,2,0.4,3.7,1.1,5c0.8,1.4,1.8,2.4,3,3.1c1.3,0.7,2.6,1,4.1,1C383.4,31,384.7,30.7,386,30z"/>
	<linearGradient id="SVGID_16_" gradientUnits="userSpaceOnUse" x1="408.4638" y1="11.973" x2="408.4638" y2="78.1873">
		<stop  offset="0.1534" style="stop-color:#FFFFFF"/>
		<stop  offset="1" style="stop-color:#000000"/>
	</linearGradient>
	<path class="st15" d="M398.6,15.8c0.9-1.7,2.2-3.1,3.9-4s3.5-1.4,5.5-1.4c2,0,3.8,0.5,5.4,1.4c1.6,1,2.8,2.2,3.5,3.8V2.7h2.9v30.5
		h-2.9v-5c-0.7,1.6-1.8,2.9-3.4,3.9c-1.6,1-3.4,1.5-5.5,1.5c-2.1,0-3.9-0.5-5.5-1.4c-1.6-1-2.9-2.3-3.8-4.1s-1.4-3.8-1.4-6.1
		C397.2,19.6,397.7,17.5,398.6,15.8z M415.7,17.1c-0.7-1.4-1.8-2.4-3-3.2c-1.3-0.7-2.7-1.1-4.2-1.1c-1.6,0-3,0.4-4.3,1.1
		c-1.3,0.7-2.3,1.8-3,3.1c-0.7,1.4-1.1,3-1.1,4.8c0,1.8,0.4,3.5,1.1,4.8c0.7,1.4,1.7,2.4,3,3.2s2.7,1.1,4.3,1.1
		c1.5,0,2.9-0.4,4.2-1.1c1.3-0.7,2.3-1.8,3-3.2c0.7-1.4,1.1-3,1.1-4.8C416.9,20.1,416.5,18.5,415.7,17.1z"/>
	<linearGradient id="SVGID_17_" gradientUnits="userSpaceOnUse" x1="427.7866" y1="11.973" x2="427.7866" y2="78.1873">
		<stop  offset="0.1534" style="stop-color:#FFFFFF"/>
		<stop  offset="1" style="stop-color:#000000"/>
	</linearGradient>
	<path class="st16" d="M426.3,5.8c-0.4-0.4-0.6-0.9-0.6-1.5c0-0.6,0.2-1.1,0.6-1.5c0.4-0.4,0.9-0.6,1.5-0.6s1.1,0.2,1.5,0.6
		c0.4,0.4,0.6,0.9,0.6,1.5c0,0.6-0.2,1.1-0.6,1.5c-0.4,0.4-0.9,0.6-1.5,0.6S426.7,6.2,426.3,5.8z M429.2,10.7v22.5h-2.9V10.7H429.2z
		"/>
	<linearGradient id="SVGID_18_" gradientUnits="userSpaceOnUse" x1="445.749" y1="11.973" x2="445.749" y2="78.1873">
		<stop  offset="0.1534" style="stop-color:#FFFFFF"/>
		<stop  offset="1" style="stop-color:#000000"/>
	</linearGradient>
	<path class="st17" d="M435.9,15.8c0.9-1.7,2.2-3.1,3.9-4s3.5-1.4,5.5-1.4c2.1,0,4,0.5,5.5,1.5c1.6,1,2.7,2.3,3.3,3.8v-4.9h2.9v33.2
		h-2.9V28.2c-0.7,1.5-1.8,2.8-3.4,3.8c-1.6,1-3.4,1.5-5.6,1.5c-2,0-3.9-0.5-5.5-1.4c-1.6-1-2.9-2.3-3.8-4.1s-1.4-3.8-1.4-6.1
		C434.5,19.6,434.9,17.5,435.9,15.8z M453,17.1c-0.7-1.4-1.8-2.4-3-3.2c-1.3-0.7-2.7-1.1-4.2-1.1c-1.6,0-3,0.4-4.3,1.1
		c-1.3,0.7-2.3,1.8-3,3.1c-0.7,1.4-1.1,3-1.1,4.8c0,1.8,0.4,3.5,1.1,4.8c0.7,1.4,1.7,2.4,3,3.2s2.7,1.1,4.3,1.1
		c1.5,0,2.9-0.4,4.2-1.1c1.3-0.7,2.3-1.8,3-3.2c0.7-1.4,1.1-3,1.1-4.8C454.1,20.1,453.8,18.5,453,17.1z"/>
</g>
<rect x="460.7" y="37.7" class="st18" width="4.6" height="4.6"/>
</svg>
